Patient4_TMGait_0pt6_02_left_37_GRF.mot
version=1
nRows=26
nColumns=19
inDegrees=no
endheader
time	F1x	F1y	F1z	M1x	M1y	M1z	F2x	F2y	F2z	M2x	M2y	M2z	EC1x	EC1y	EC1z	EC2x	EC2y	EC2z
45.16	5.6777	15.2125	8.2229	-5.5934	-7.6163	2.7391	-44.9206	778.1108	-79.9432	321.1631	101.8272	864.0807	-0.0592	0.0182	-0.0073	-0.0462	0.0165	0.9585
45.1721	3.727	11.1472	5.562	-4.118	-5.2073	2.9912	-38.1468	768.5749	-76.1072	316.1924	95.9473	848.5666	-0.0592	0.0182	-0.0073	-0.0462	0.0165	0.9585
45.1843	2.08	7.7638	3.304	-2.8761	-3.1458	3.2164	-31.5093	756.1839	-72.3863	310.2828	89.9687	829.506	-0.0592	0.0182	-0.0073	-0.0462	0.0165	0.9585
45.1964	0.80202	5.2591	1.5853	-1.9452	-1.5751	3.4496	-25.309	741.8656	-68.9746	303.8815	84.1835	808.0884	-0.0592	0.0182	-0.0073	-0.0462	0.0165	0.9585
45.2086	-0.075311	3.5908	0.4068	-1.3161	-0.49736	3.6641	-19.6504	726.9945	-65.9596	297.55	78.7442	785.9123	-0.0592	0.0182	-0.0073	-0.0462	0.0165	0.9585
45.2207	-0.63569	2.6307	-0.30759	-0.94317	0.14625	3.8736	-14.509	713.0436	-63.3127	291.858	73.6725	764.6137	-0.0592	0.0182	-0.0073	-0.0462	0.0165	0.9585
45.2329	-0.9334	2.1831	-0.66122	-0.75902	0.45225	4.0288	-9.83	701.3568	-61.0131	287.3046	68.9932	745.6644	-0.0592	0.0182	-0.0073	-0.0462	0.0165	0.9585
45.245	-1.059	2.0424	-0.74999	-0.69093	0.50723	4.0986	-5.5054	693.0353	-59.0172	284.2777	64.692	730.2484	-0.0592	0.0182	-0.0073	-0.0462	0.0165	0.9585
45.2571	-1.071	2.0088	-0.66276	-0.66758	0.39458	4.0153	-1.4581	688.7962	-57.3136	283.0138	60.7753	719.1429	-0.0592	0.0182	-0.0073	-0.0462	0.0165	0.9585
45.2693	-1.034	1.884	-0.4702	-0.61772	0.17848	3.6755	2.3629	688.9626	-55.8516	283.592	57.1973	712.7255	-0.0592	0.0182	-0.0073	-0.0462	0.0165	0.9585
45.2814	-0.97609	1.4888	-0.23698	-0.47649	-0.08012	2.9558	5.9878	693.4104	-54.6061	285.9086	53.9376	710.9227	-0.0592	0.0182	-0.0073	-0.0462	0.0165	0.9585
45.2936	-0.91124	0.65721	0.006465	-0.18629	-0.34408	1.7046	9.3515	701.487	-53.5351	289.652	50.9801	713.1299	-0.0592	0.0182	-0.0073	-0.0462	0.0165	0.9585
45.3057	-0.83307	-0.72989	0.21952	0.29441	-0.56472	-0.18849	12.4102	712.1266	-52.6378	294.3387	48.3434	718.322	-0.0592	0.0182	-0.0073	-0.0462	0.0165	0.9585
45.3179	-0.70171	-2.7413	0.38697	0.98964	-0.70545	-2.7891	15.0948	724.0078	-51.8938	299.3868	46.0281	725.2216	-0.0592	0.0182	-0.0073	-0.0462	0.0165	0.9585
45.33	-0.47898	-5.2916	0.44893	1.8726	-0.68826	-5.9874	17.3943	735.7454	-51.2859	304.2076	44.0147	732.4516	-0.0592	0.0182	-0.0073	-0.0462	0.0165	0.9585
45.3421	-0.091657	-8.129	0.36556	2.8542	-0.43764	-9.5003	19.3681	746.1816	-50.7614	308.3117	42.2291	738.8509	-0.0592	0.0182	-0.0073	-0.0462	0.0165	0.9585
45.3543	0.52225	-10.6933	0.047264	3.7332	0.16982	-12.66	21.1385	754.398	-50.2829	311.3265	40.5862	743.4477	-0.0592	0.0182	-0.0073	-0.0462	0.0165	0.9585
45.3664	1.4295	-12.0638	-0.57313	4.1782	1.2466	-14.3796	22.8489	759.8306	-49.8346	313.0337	39.0092	745.6116	-0.0592	0.0182	-0.0073	-0.0462	0.0165	0.9585
45.3786	2.6364	-10.8311	-1.6005	3.6866	2.92	-12.9572	24.7035	762.2556	-49.4517	313.3636	37.4536	745.0237	-0.0592	0.0182	-0.0073	-0.0462	0.0165	0.9585
45.3907	4.1091	-5.0774	-3.0831	1.5771	5.2374	-6.0835	26.8735	761.6947	-49.1753	312.3568	35.8904	741.6184	-0.0592	0.0182	-0.0073	-0.0462	0.0165	0.9585
45.4029	5.675	7.5872	-5.041	-2.9964	8.1522	9.1564	29.527	758.2663	-49.026	310.1027	34.2776	735.4336	-0.0592	0.0182	-0.0073	-0.0462	0.0165	0.9585
45.415	7.0018	29.76	-7.352	-10.9489	11.3946	35.9366	32.7687	752.0151	-48.9704	306.6651	32.5474	726.4684	-0.0592	0.0182	-0.0073	-0.0462	0.0165	0.9585
45.4271	7.5303	63.8251	-9.7371	-23.105	14.4085	77.1815	36.6116	742.6727	-48.9139	301.9864	30.6085	714.4609	-0.0592	0.0182	-0.0073	-0.0462	0.0165	0.9585
45.4393	6.4123	111.1028	-11.6384	-39.902	16.2092	134.5351	40.9379	729.5338	-48.7194	295.8281	28.3779	698.7832	-0.0592	0.0182	-0.0073	-0.0462	0.0165	0.9585
45.4514	2.4723	171.0204	-12.3605	-61.085	15.5338	207.3532	45.476	711.4478	-48.1834	287.7654	25.7775	678.4522	-0.0592	0.0182	-0.0073	-0.0462	0.0165	0.9585
45.4636	-5.0385	240.2293	-11.0107	-85.3956	11.0313	291.6125	49.8271	686.8995	-47.0673	277.2246	22.7538	652.1746	-0.0592	0.0182	-0.0073	-0.0462	0.0165	0.9585
